<svg width="96" height="96" viewBox="0 0 16 16" xmlns="http://www.w3.org/2000/svg" fill="none">
  <path fill="var(--foreground)" d="M8.294 1c-.09 0-.184.005-.28.012-2.465.194-1.811 2.804-1.85 3.674-.043.637-.174 1.14-.612 1.762-.516.613-1.24 1.604-1.584 2.637-.162.485-.24.982-.167 1.452a.247.247 0 00-.064.079c-.152.156-.263.35-.387.49-.116.115-.283.155-.465.232-.183.08-.384.157-.504.397a.78.78 0 00-.077.351c0 .116.016.234.032.313.034.233.068.425.023.566-.145.396-.163.668-.062.865.102.195.313.275.549.351.472.117 1.114.079 1.618.35.54.272 1.088.39 1.526.274.307-.067.566-.27.705-.552.342-.001.717-.157 1.318-.194.408-.034.918.155 1.503.116.015.078.037.116.067.194l.001.002c.229.454.65.66 1.1.625.45-.035.928-.313 1.316-.762.368-.446.982-.632 1.387-.877.203-.116.367-.273.379-.497.013-.234-.117-.473-.417-.803v-.056l-.002-.002c-.099-.117-.145-.312-.197-.54-.05-.234-.106-.459-.287-.61h-.001c-.035-.032-.072-.04-.11-.08a.208.208 0 00-.11-.037c.25-.745.153-1.487-.102-2.154-.31-.823-.854-1.54-1.269-2.032-.464-.587-.919-1.142-.91-1.965.016-1.255.138-3.578-2.067-3.581z" />
</svg>
